# 3ds Max Wavefront OBJ Exporter v0.97b - (c)2007 guruware
# File Created: 16.03.2018 00:14:11

#
# object Torus001
#

v  -0.0159 0.0570 -6.1338
v  2.0400 0.3064 -5.6459
v  2.0829 0.0570 -5.7638
v  -0.0159 0.3064 -6.0084
v  1.9364 0.4097 -5.3615
v  -0.0159 0.4097 -5.7057
v  1.8329 0.3064 -5.0770
v  -0.0159 0.3064 -5.4030
v  1.7900 0.0570 -4.9592
v  -0.0159 0.0570 -5.2776
v  1.8329 -0.1925 -5.0770
v  -0.0159 -0.1925 -5.4030
v  1.9364 -0.2958 -5.3615
v  -0.0159 -0.2958 -5.7057
v  2.0400 -0.1925 -5.6459
v  -0.0159 -0.1925 -6.0084
v  3.8479 0.3064 -4.6021
v  3.9285 0.0570 -4.6982
v  3.6533 0.4097 -4.3702
v  3.4587 0.3064 -4.1383
v  3.3781 0.0570 -4.0423
v  3.4587 -0.1925 -4.1383
v  3.6533 -0.2958 -4.3702
v  3.8479 -0.1925 -4.6021
v  5.1897 0.3064 -3.0030
v  5.2983 0.0570 -3.0657
v  4.9276 0.4097 -2.8516
v  4.6654 0.3064 -2.7002
v  4.5568 0.0570 -2.6375
v  4.6654 -0.1925 -2.7002
v  4.9276 -0.2958 -2.8516
v  5.1897 -0.1925 -3.0030
v  5.9037 0.3064 -1.0413
v  6.0272 0.0570 -1.0631
v  5.6056 0.4097 -0.9887
v  5.3075 0.3064 -0.9361
v  5.1840 0.0570 -0.9144
v  5.3075 -0.1925 -0.9361
v  5.6056 -0.2958 -0.9887
v  5.9037 -0.1925 -1.0413
v  5.9037 0.3064 1.0463
v  6.0272 0.0570 1.0681
v  5.6056 0.4097 0.9937
v  5.3075 0.3064 0.9412
v  5.1840 0.0570 0.9194
v  5.3075 -0.1925 0.9412
v  5.6056 -0.2958 0.9937
v  5.9037 -0.1925 1.0463
v  5.1897 0.3064 3.0080
v  5.2983 0.0570 3.0707
v  4.9276 0.4097 2.8566
v  4.6654 0.3064 2.7053
v  4.5568 0.0570 2.6426
v  4.6654 -0.1925 2.7053
v  4.9276 -0.2958 2.8566
v  5.1897 -0.1925 3.0080
v  3.8479 0.3064 4.6072
v  3.9285 0.0570 4.7032
v  3.6533 0.4097 4.3753
v  3.4587 0.3064 4.1434
v  3.3781 0.0570 4.0473
v  3.4587 -0.1925 4.1434
v  3.6533 -0.2958 4.3753
v  3.8479 -0.1925 4.6072
v  2.0400 0.3064 5.6510
v  2.0829 0.0570 5.7688
v  1.9364 0.4097 5.3665
v  1.8329 0.3064 5.0820
v  1.7900 0.0570 4.9642
v  1.8329 -0.1925 5.0820
v  1.9364 -0.2958 5.3665
v  2.0400 -0.1925 5.6510
v  -0.0159 0.3064 6.0135
v  -0.0159 0.0570 6.1389
v  -0.0159 0.4097 5.7107
v  -0.0159 0.3064 5.4080
v  -0.0159 0.0570 5.2826
v  -0.0159 -0.1925 5.4080
v  -0.0159 -0.2958 5.7107
v  -0.0159 -0.1925 6.0135
v  -2.0718 0.3064 5.6510
v  -2.1146 0.0570 5.7688
v  -1.9682 0.4097 5.3665
v  -1.8647 0.3064 5.0820
v  -1.8218 0.0570 4.9642
v  -1.8647 -0.1925 5.0820
v  -1.9682 -0.2958 5.3665
v  -2.0718 -0.1925 5.6510
v  -3.8797 0.3064 4.6072
v  -3.9603 0.0570 4.7032
v  -3.6851 0.4097 4.3753
v  -3.4905 0.3064 4.1434
v  -3.4099 0.0570 4.0473
v  -3.4905 -0.1925 4.1434
v  -3.6851 -0.2958 4.3753
v  -3.8797 -0.1925 4.6072
v  -5.2215 0.3064 3.0080
v  -5.3301 0.0570 3.0707
v  -4.9594 0.4097 2.8566
v  -4.6972 0.3064 2.7053
v  -4.5886 0.0570 2.6426
v  -4.6972 -0.1925 2.7053
v  -4.9594 -0.2958 2.8566
v  -5.2215 -0.1925 3.0080
v  -5.9355 0.3064 1.0463
v  -6.0590 0.0570 1.0681
v  -5.6374 0.4097 0.9937
v  -5.3393 0.3064 0.9412
v  -5.2158 0.0570 0.9194
v  -5.3393 -0.1925 0.9412
v  -5.6374 -0.2958 0.9937
v  -5.9355 -0.1925 1.0463
v  -5.9355 0.3064 -1.0413
v  -6.0590 0.0570 -1.0631
v  -5.6374 0.4097 -0.9887
v  -5.3393 0.3064 -0.9361
v  -5.2158 0.0570 -0.9144
v  -5.3393 -0.1925 -0.9361
v  -5.6374 -0.2958 -0.9887
v  -5.9355 -0.1925 -1.0413
v  -5.2215 0.3064 -3.0030
v  -5.3301 0.0570 -3.0657
v  -4.9594 0.4097 -2.8516
v  -4.6972 0.3064 -2.7002
v  -4.5886 0.0570 -2.6375
v  -4.6972 -0.1925 -2.7002
v  -4.9594 -0.2958 -2.8516
v  -5.2215 -0.1925 -3.0030
v  -3.8797 0.3064 -4.6021
v  -3.9603 0.0570 -4.6982
v  -3.6851 0.4097 -4.3702
v  -3.4905 0.3064 -4.1383
v  -3.4099 0.0570 -4.0423
v  -3.4905 -0.1925 -4.1383
v  -3.6851 -0.2958 -4.3702
v  -3.8797 -0.1925 -4.6021
v  -2.0718 0.3064 -5.6459
v  -2.1146 0.0570 -5.7638
v  -1.9682 0.4097 -5.3615
v  -1.8647 0.3064 -5.0770
v  -1.8218 0.0570 -4.9592
v  -1.8647 -0.1925 -5.0770
v  -1.9682 -0.2958 -5.3615
v  -2.0718 -0.1925 -5.6459
# 144 vertices

vn 0.0000 0.0000 -1.0000
vn 0.2487 0.6865 -0.6833
vn 0.3420 -0.0000 -0.9397
vn 0.0000 0.6865 -0.7271
vn 0.0145 0.9991 -0.0399
vn -0.0000 0.9991 -0.0425
vn -0.2341 0.7289 0.6433
vn -0.0000 0.7289 0.6846
vn -0.3420 0.0000 0.9397
vn -0.0000 -0.0000 1.0000
vn -0.2341 -0.7289 0.6433
vn -0.0000 -0.7289 0.6846
vn 0.0145 -0.9991 -0.0399
vn 0.0000 -0.9991 -0.0425
vn 0.2487 -0.6865 -0.6833
vn 0.0000 -0.6865 -0.7271
vn 0.4674 0.6865 -0.5570
vn 0.6428 0.0000 -0.7660
vn 0.0273 0.9991 -0.0325
vn -0.4400 0.7289 0.5244
vn -0.6428 -0.0000 0.7660
vn -0.4400 -0.7289 0.5244
vn 0.0273 -0.9991 -0.0325
vn 0.4674 -0.6865 -0.5570
vn 0.6297 0.6865 -0.3636
vn 0.8660 0.0000 -0.5000
vn 0.0368 0.9991 -0.0212
vn -0.5929 0.7289 0.3423
vn -0.8660 0.0000 0.5000
vn -0.5929 -0.7289 0.3423
vn 0.0368 -0.9991 -0.0212
vn 0.6297 -0.6865 -0.3636
vn 0.7161 0.6865 -0.1263
vn 0.9848 0.0000 -0.1736
vn 0.0418 0.9991 -0.0074
vn -0.6742 0.7289 0.1189
vn -0.9848 -0.0000 0.1736
vn -0.6742 -0.7289 0.1189
vn 0.0418 -0.9991 -0.0074
vn 0.7161 -0.6865 -0.1263
vn 0.7161 0.6865 0.1263
vn 0.9848 0.0000 0.1736
vn 0.0418 0.9991 0.0074
vn -0.6742 0.7289 -0.1189
vn -0.9848 -0.0000 -0.1736
vn -0.6742 -0.7289 -0.1189
vn 0.0418 -0.9991 0.0074
vn 0.7161 -0.6865 0.1263
vn 0.6297 0.6865 0.3636
vn 0.8660 -0.0000 0.5000
vn 0.0368 0.9991 0.0212
vn -0.5929 0.7289 -0.3423
vn -0.8660 -0.0000 -0.5000
vn -0.5929 -0.7289 -0.3423
vn 0.0368 -0.9991 0.0212
vn 0.6297 -0.6865 0.3636
vn 0.4674 0.6865 0.5570
vn 0.6428 -0.0000 0.7660
vn 0.0273 0.9991 0.0325
vn -0.4400 0.7289 -0.5244
vn -0.6428 -0.0000 -0.7660
vn -0.4400 -0.7289 -0.5244
vn 0.0273 -0.9991 0.0325
vn 0.4674 -0.6865 0.5570
vn 0.2487 0.6865 0.6833
vn 0.3420 0.0000 0.9397
vn 0.0145 0.9991 0.0399
vn -0.2341 0.7289 -0.6433
vn -0.3420 -0.0000 -0.9397
vn -0.2341 -0.7289 -0.6433
vn 0.0145 -0.9991 0.0399
vn 0.2487 -0.6865 0.6833
vn -0.0000 0.6865 0.7271
vn -0.0000 0.0000 1.0000
vn -0.0000 0.9991 0.0425
vn 0.0000 0.7289 -0.6846
vn 0.0000 -0.7289 -0.6846
vn -0.0000 -0.9991 0.0425
vn -0.0000 -0.6865 0.7271
vn -0.2487 0.6865 0.6833
vn -0.0145 0.9991 0.0399
vn 0.2341 0.7289 -0.6433
vn 0.2341 -0.7289 -0.6433
vn -0.0145 -0.9991 0.0399
vn -0.2487 -0.6865 0.6833
vn -0.4674 0.6865 0.5570
vn -0.6428 0.0000 0.7660
vn -0.0273 0.9991 0.0325
vn 0.4400 0.7289 -0.5244
vn 0.4400 -0.7289 -0.5244
vn -0.0273 -0.9991 0.0325
vn -0.4674 -0.6865 0.5570
vn -0.6297 0.6865 0.3636
vn -0.0368 0.9991 0.0212
vn 0.5929 0.7289 -0.3423
vn 0.5929 -0.7289 -0.3423
vn -0.0368 -0.9991 0.0212
vn -0.6297 -0.6865 0.3636
vn -0.7161 0.6865 0.1263
vn -0.9848 0.0000 0.1736
vn -0.0418 0.9991 0.0074
vn 0.6742 0.7289 -0.1189
vn 0.9848 -0.0000 -0.1736
vn 0.6742 -0.7289 -0.1189
vn -0.0418 -0.9991 0.0074
vn -0.7161 -0.6865 0.1263
vn -0.7161 0.6865 -0.1263
vn -0.9848 0.0000 -0.1736
vn -0.0418 0.9991 -0.0074
vn 0.6742 0.7289 0.1189
vn 0.6742 -0.7289 0.1189
vn -0.0418 -0.9991 -0.0074
vn -0.7161 -0.6865 -0.1263
vn -0.6297 0.6865 -0.3636
vn -0.0368 0.9991 -0.0212
vn 0.5929 0.7289 0.3423
vn 0.8660 0.0000 0.5000
vn 0.5929 -0.7289 0.3423
vn -0.0368 -0.9991 -0.0212
vn -0.6297 -0.6865 -0.3636
vn -0.4674 0.6865 -0.5570
vn -0.6428 0.0000 -0.7660
vn -0.0273 0.9991 -0.0325
vn 0.4400 0.7289 0.5244
vn 0.6428 0.0000 0.7660
vn 0.4400 -0.7289 0.5244
vn -0.0273 -0.9991 -0.0325
vn -0.4674 -0.6865 -0.5570
vn -0.2487 0.6865 -0.6833
vn -0.3420 0.0000 -0.9397
vn -0.0145 0.9991 -0.0399
vn 0.2341 0.7289 0.6433
vn 0.3420 -0.0000 0.9397
vn 0.2341 -0.7289 0.6433
vn -0.0145 -0.9991 -0.0399
vn -0.2487 -0.6865 -0.6833
# 136 vertex normals

vt 0.0000 0.0000 0.0000
vt 0.1250 0.0556 0.0000
vt 0.0000 0.0556 0.0000
vt 0.1250 0.0000 0.0000
vt 0.2500 0.0556 0.0000
vt 0.2500 0.0000 0.0000
vt 0.3750 0.0556 0.0000
vt 0.3750 0.0000 0.0000
vt 0.5000 0.0556 0.0000
vt 0.5000 0.0000 0.0000
vt 0.6250 0.0556 0.0000
vt 0.6250 0.0000 0.0000
vt 0.7500 0.0556 0.0000
vt 0.7500 0.0000 0.0000
vt 0.8750 0.0556 0.0000
vt 0.8750 0.0000 0.0000
vt 1.0000 0.0556 0.0000
vt 1.0000 0.0000 0.0000
vt 0.1250 0.1111 0.0000
vt 0.0000 0.1111 0.0000
vt 0.2500 0.1111 0.0000
vt 0.3750 0.1111 0.0000
vt 0.5000 0.1111 0.0000
vt 0.6250 0.1111 0.0000
vt 0.7500 0.1111 0.0000
vt 0.8750 0.1111 0.0000
vt 1.0000 0.1111 0.0000
vt 0.1250 0.1667 0.0000
vt 0.0000 0.1667 0.0000
vt 0.2500 0.1667 0.0000
vt 0.3750 0.1667 0.0000
vt 0.5000 0.1667 0.0000
vt 0.6250 0.1667 0.0000
vt 0.7500 0.1667 0.0000
vt 0.8750 0.1667 0.0000
vt 1.0000 0.1667 0.0000
vt 0.1250 0.2222 0.0000
vt 0.0000 0.2222 0.0000
vt 0.2500 0.2222 0.0000
vt 0.3750 0.2222 0.0000
vt 0.5000 0.2222 0.0000
vt 0.6250 0.2222 0.0000
vt 0.7500 0.2222 0.0000
vt 0.8750 0.2222 0.0000
vt 1.0000 0.2222 0.0000
vt 0.1250 0.2778 0.0000
vt 0.0000 0.2778 0.0000
vt 0.2500 0.2778 0.0000
vt 0.3750 0.2778 0.0000
vt 0.5000 0.2778 0.0000
vt 0.6250 0.2778 0.0000
vt 0.7500 0.2778 0.0000
vt 0.8750 0.2778 0.0000
vt 1.0000 0.2778 0.0000
vt 0.1250 0.3333 0.0000
vt 0.0000 0.3333 0.0000
vt 0.2500 0.3333 0.0000
vt 0.3750 0.3333 0.0000
vt 0.5000 0.3333 0.0000
vt 0.6250 0.3333 0.0000
vt 0.7500 0.3333 0.0000
vt 0.8750 0.3333 0.0000
vt 1.0000 0.3333 0.0000
vt 0.1250 0.3889 0.0000
vt 0.0000 0.3889 0.0000
vt 0.2500 0.3889 0.0000
vt 0.3750 0.3889 0.0000
vt 0.5000 0.3889 0.0000
vt 0.6250 0.3889 0.0000
vt 0.7500 0.3889 0.0000
vt 0.8750 0.3889 0.0000
vt 1.0000 0.3889 0.0000
vt 0.1250 0.4444 0.0000
vt 0.0000 0.4444 0.0000
vt 0.2500 0.4444 0.0000
vt 0.3750 0.4444 0.0000
vt 0.5000 0.4444 0.0000
vt 0.6250 0.4444 0.0000
vt 0.7500 0.4444 0.0000
vt 0.8750 0.4444 0.0000
vt 1.0000 0.4444 0.0000
vt 0.1250 0.5000 0.0000
vt 0.0000 0.5000 0.0000
vt 0.2500 0.5000 0.0000
vt 0.3750 0.5000 0.0000
vt 0.5000 0.5000 0.0000
vt 0.6250 0.5000 0.0000
vt 0.7500 0.5000 0.0000
vt 0.8750 0.5000 0.0000
vt 1.0000 0.5000 0.0000
vt 0.1250 0.5556 0.0000
vt 0.0000 0.5556 0.0000
vt 0.2500 0.5556 0.0000
vt 0.3750 0.5556 0.0000
vt 0.5000 0.5556 0.0000
vt 0.6250 0.5556 0.0000
vt 0.7500 0.5556 0.0000
vt 0.8750 0.5556 0.0000
vt 1.0000 0.5556 0.0000
vt 0.1250 0.6111 0.0000
vt 0.0000 0.6111 0.0000
vt 0.2500 0.6111 0.0000
vt 0.3750 0.6111 0.0000
vt 0.5000 0.6111 0.0000
vt 0.6250 0.6111 0.0000
vt 0.7500 0.6111 0.0000
vt 0.8750 0.6111 0.0000
vt 1.0000 0.6111 0.0000
vt 0.1250 0.6667 0.0000
vt 0.0000 0.6667 0.0000
vt 0.2500 0.6667 0.0000
vt 0.3750 0.6667 0.0000
vt 0.5000 0.6667 0.0000
vt 0.6250 0.6667 0.0000
vt 0.7500 0.6667 0.0000
vt 0.8750 0.6667 0.0000
vt 1.0000 0.6667 0.0000
vt 0.1250 0.7222 0.0000
vt 0.0000 0.7222 0.0000
vt 0.2500 0.7222 0.0000
vt 0.3750 0.7222 0.0000
vt 0.5000 0.7222 0.0000
vt 0.6250 0.7222 0.0000
vt 0.7500 0.7222 0.0000
vt 0.8750 0.7222 0.0000
vt 1.0000 0.7222 0.0000
vt 0.1250 0.7778 0.0000
vt 0.0000 0.7778 0.0000
vt 0.2500 0.7778 0.0000
vt 0.3750 0.7778 0.0000
vt 0.5000 0.7778 0.0000
vt 0.6250 0.7778 0.0000
vt 0.7500 0.7778 0.0000
vt 0.8750 0.7778 0.0000
vt 1.0000 0.7778 0.0000
vt 0.1250 0.8333 0.0000
vt 0.0000 0.8333 0.0000
vt 0.2500 0.8333 0.0000
vt 0.3750 0.8333 0.0000
vt 0.5000 0.8333 0.0000
vt 0.6250 0.8333 0.0000
vt 0.7500 0.8333 0.0000
vt 0.8750 0.8333 0.0000
vt 1.0000 0.8333 0.0000
vt 0.1250 0.8889 0.0000
vt 0.0000 0.8889 0.0000
vt 0.2500 0.8889 0.0000
vt 0.3750 0.8889 0.0000
vt 0.5000 0.8889 0.0000
vt 0.6250 0.8889 0.0000
vt 0.7500 0.8889 0.0000
vt 0.8750 0.8889 0.0000
vt 1.0000 0.8889 0.0000
vt 0.1250 0.9444 0.0000
vt 0.0000 0.9444 0.0000
vt 0.2500 0.9444 0.0000
vt 0.3750 0.9444 0.0000
vt 0.5000 0.9444 0.0000
vt 0.6250 0.9444 0.0000
vt 0.7500 0.9444 0.0000
vt 0.8750 0.9444 0.0000
vt 1.0000 0.9444 0.0000
vt 0.1250 1.0000 0.0000
vt 0.0000 1.0000 0.0000
vt 0.2500 1.0000 0.0000
vt 0.3750 1.0000 0.0000
vt 0.5000 1.0000 0.0000
vt 0.6250 1.0000 0.0000
vt 0.7500 1.0000 0.0000
vt 0.8750 1.0000 0.0000
vt 1.0000 1.0000 0.0000
# 171 texture coords

o Torus001
g Torus001
f 1/1/1 2/2/2 3/3/3 
f 1/1/1 4/4/4 2/2/2 
f 4/4/4 5/5/5 2/2/2 
f 4/4/4 6/6/6 5/5/5 
f 6/6/6 7/7/7 5/5/5 
f 6/6/6 8/8/8 7/7/7 
f 8/8/8 9/9/9 7/7/7 
f 8/8/8 10/10/10 9/9/9 
f 10/10/10 11/11/11 9/9/9 
f 10/10/10 12/12/12 11/11/11 
f 12/12/12 13/13/13 11/11/11 
f 12/12/12 14/14/14 13/13/13 
f 14/14/14 15/15/15 13/13/13 
f 14/14/14 16/16/16 15/15/15 
f 16/16/16 3/17/3 15/15/15 
f 16/16/16 1/18/1 3/17/3 
f 3/3/3 17/19/17 18/20/18 
f 3/3/3 2/2/2 17/19/17 
f 2/2/2 19/21/19 17/19/17 
f 2/2/2 5/5/5 19/21/19 
f 5/5/5 20/22/20 19/21/19 
f 5/5/5 7/7/7 20/22/20 
f 7/7/7 21/23/21 20/22/20 
f 7/7/7 9/9/9 21/23/21 
f 9/9/9 22/24/22 21/23/21 
f 9/9/9 11/11/11 22/24/22 
f 11/11/11 23/25/23 22/24/22 
f 11/11/11 13/13/13 23/25/23 
f 13/13/13 24/26/24 23/25/23 
f 13/13/13 15/15/15 24/26/24 
f 15/15/15 18/27/18 24/26/24 
f 15/15/15 3/17/3 18/27/18 
f 18/20/18 25/28/25 26/29/26 
f 18/20/18 17/19/17 25/28/25 
f 17/19/17 27/30/27 25/28/25 
f 17/19/17 19/21/19 27/30/27 
f 19/21/19 28/31/28 27/30/27 
f 19/21/19 20/22/20 28/31/28 
f 20/22/20 29/32/29 28/31/28 
f 20/22/20 21/23/21 29/32/29 
f 21/23/21 30/33/30 29/32/29 
f 21/23/21 22/24/22 30/33/30 
f 22/24/22 31/34/31 30/33/30 
f 22/24/22 23/25/23 31/34/31 
f 23/25/23 32/35/32 31/34/31 
f 23/25/23 24/26/24 32/35/32 
f 24/26/24 26/36/26 32/35/32 
f 24/26/24 18/27/18 26/36/26 
f 26/29/26 33/37/33 34/38/34 
f 26/29/26 25/28/25 33/37/33 
f 25/28/25 35/39/35 33/37/33 
f 25/28/25 27/30/27 35/39/35 
f 27/30/27 36/40/36 35/39/35 
f 27/30/27 28/31/28 36/40/36 
f 28/31/28 37/41/37 36/40/36 
f 28/31/28 29/32/29 37/41/37 
f 29/32/29 38/42/38 37/41/37 
f 29/32/29 30/33/30 38/42/38 
f 30/33/30 39/43/39 38/42/38 
f 30/33/30 31/34/31 39/43/39 
f 31/34/31 40/44/40 39/43/39 
f 31/34/31 32/35/32 40/44/40 
f 32/35/32 34/45/34 40/44/40 
f 32/35/32 26/36/26 34/45/34 
f 34/38/34 41/46/41 42/47/42 
f 34/38/34 33/37/33 41/46/41 
f 33/37/33 43/48/43 41/46/41 
f 33/37/33 35/39/35 43/48/43 
f 35/39/35 44/49/44 43/48/43 
f 35/39/35 36/40/36 44/49/44 
f 36/40/36 45/50/45 44/49/44 
f 36/40/36 37/41/37 45/50/45 
f 37/41/37 46/51/46 45/50/45 
f 37/41/37 38/42/38 46/51/46 
f 38/42/38 47/52/47 46/51/46 
f 38/42/38 39/43/39 47/52/47 
f 39/43/39 48/53/48 47/52/47 
f 39/43/39 40/44/40 48/53/48 
f 40/44/40 42/54/42 48/53/48 
f 40/44/40 34/45/34 42/54/42 
f 42/47/42 49/55/49 50/56/50 
f 42/47/42 41/46/41 49/55/49 
f 41/46/41 51/57/51 49/55/49 
f 41/46/41 43/48/43 51/57/51 
f 43/48/43 52/58/52 51/57/51 
f 43/48/43 44/49/44 52/58/52 
f 44/49/44 53/59/53 52/58/52 
f 44/49/44 45/50/45 53/59/53 
f 45/50/45 54/60/54 53/59/53 
f 45/50/45 46/51/46 54/60/54 
f 46/51/46 55/61/55 54/60/54 
f 46/51/46 47/52/47 55/61/55 
f 47/52/47 56/62/56 55/61/55 
f 47/52/47 48/53/48 56/62/56 
f 48/53/48 50/63/50 56/62/56 
f 48/53/48 42/54/42 50/63/50 
f 50/56/50 57/64/57 58/65/58 
f 50/56/50 49/55/49 57/64/57 
f 49/55/49 59/66/59 57/64/57 
f 49/55/49 51/57/51 59/66/59 
f 51/57/51 60/67/60 59/66/59 
f 51/57/51 52/58/52 60/67/60 
f 52/58/52 61/68/61 60/67/60 
f 52/58/52 53/59/53 61/68/61 
f 53/59/53 62/69/62 61/68/61 
f 53/59/53 54/60/54 62/69/62 
f 54/60/54 63/70/63 62/69/62 
f 54/60/54 55/61/55 63/70/63 
f 55/61/55 64/71/64 63/70/63 
f 55/61/55 56/62/56 64/71/64 
f 56/62/56 58/72/58 64/71/64 
f 56/62/56 50/63/50 58/72/58 
f 58/65/58 65/73/65 66/74/66 
f 58/65/58 57/64/57 65/73/65 
f 57/64/57 67/75/67 65/73/65 
f 57/64/57 59/66/59 67/75/67 
f 59/66/59 68/76/68 67/75/67 
f 59/66/59 60/67/60 68/76/68 
f 60/67/60 69/77/69 68/76/68 
f 60/67/60 61/68/61 69/77/69 
f 61/68/61 70/78/70 69/77/69 
f 61/68/61 62/69/62 70/78/70 
f 62/69/62 71/79/71 70/78/70 
f 62/69/62 63/70/63 71/79/71 
f 63/70/63 72/80/72 71/79/71 
f 63/70/63 64/71/64 72/80/72 
f 64/71/64 66/81/66 72/80/72 
f 64/71/64 58/72/58 66/81/66 
f 66/74/66 73/82/73 74/83/74 
f 66/74/66 65/73/65 73/82/73 
f 65/73/65 75/84/75 73/82/73 
f 65/73/65 67/75/67 75/84/75 
f 67/75/67 76/85/76 75/84/75 
f 67/75/67 68/76/68 76/85/76 
f 68/76/68 77/86/1 76/85/76 
f 68/76/68 69/77/69 77/86/1 
f 69/77/69 78/87/77 77/86/1 
f 69/77/69 70/78/70 78/87/77 
f 70/78/70 79/88/78 78/87/77 
f 70/78/70 71/79/71 79/88/78 
f 71/79/71 80/89/79 79/88/78 
f 71/79/71 72/80/72 80/89/79 
f 72/80/72 74/90/74 80/89/79 
f 72/80/72 66/81/66 74/90/74 
f 74/83/74 81/91/80 82/92/9 
f 74/83/74 73/82/73 81/91/80 
f 73/82/73 83/93/81 81/91/80 
f 73/82/73 75/84/75 83/93/81 
f 75/84/75 84/94/82 83/93/81 
f 75/84/75 76/85/76 84/94/82 
f 76/85/76 85/95/3 84/94/82 
f 76/85/76 77/86/1 85/95/3 
f 77/86/1 86/96/83 85/95/3 
f 77/86/1 78/87/77 86/96/83 
f 78/87/77 87/97/84 86/96/83 
f 78/87/77 79/88/78 87/97/84 
f 79/88/78 88/98/85 87/97/84 
f 79/88/78 80/89/79 88/98/85 
f 80/89/79 82/99/9 88/98/85 
f 80/89/79 74/90/74 82/99/9 
f 82/92/9 89/100/86 90/101/87 
f 82/92/9 81/91/80 89/100/86 
f 81/91/80 91/102/88 89/100/86 
f 81/91/80 83/93/81 91/102/88 
f 83/93/81 92/103/89 91/102/88 
f 83/93/81 84/94/82 92/103/89 
f 84/94/82 93/104/18 92/103/89 
f 84/94/82 85/95/3 93/104/18 
f 85/95/3 94/105/90 93/104/18 
f 85/95/3 86/96/83 94/105/90 
f 86/96/83 95/106/91 94/105/90 
f 86/96/83 87/97/84 95/106/91 
f 87/97/84 96/107/92 95/106/91 
f 87/97/84 88/98/85 96/107/92 
f 88/98/85 90/108/87 96/107/92 
f 88/98/85 82/99/9 90/108/87 
f 90/101/87 97/109/93 98/110/29 
f 90/101/87 89/100/86 97/109/93 
f 89/100/86 99/111/94 97/109/93 
f 89/100/86 91/102/88 99/111/94 
f 91/102/88 100/112/95 99/111/94 
f 91/102/88 92/103/89 100/112/95 
f 92/103/89 101/113/26 100/112/95 
f 92/103/89 93/104/18 101/113/26 
f 93/104/18 102/114/96 101/113/26 
f 93/104/18 94/105/90 102/114/96 
f 94/105/90 103/115/97 102/114/96 
f 94/105/90 95/106/91 103/115/97 
f 95/106/91 104/116/98 103/115/97 
f 95/106/91 96/107/92 104/116/98 
f 96/107/92 98/117/29 104/116/98 
f 96/107/92 90/108/87 98/117/29 
f 98/110/29 105/118/99 106/119/100 
f 98/110/29 97/109/93 105/118/99 
f 97/109/93 107/120/101 105/118/99 
f 97/109/93 99/111/94 107/120/101 
f 99/111/94 108/121/102 107/120/101 
f 99/111/94 100/112/95 108/121/102 
f 100/112/95 109/122/103 108/121/102 
f 100/112/95 101/113/26 109/122/103 
f 101/113/26 110/123/104 109/122/103 
f 101/113/26 102/114/96 110/123/104 
f 102/114/96 111/124/105 110/123/104 
f 102/114/96 103/115/97 111/124/105 
f 103/115/97 112/125/106 111/124/105 
f 103/115/97 104/116/98 112/125/106 
f 104/116/98 106/126/100 112/125/106 
f 104/116/98 98/117/29 106/126/100 
f 106/119/100 113/127/107 114/128/108 
f 106/119/100 105/118/99 113/127/107 
f 105/118/99 115/129/109 113/127/107 
f 105/118/99 107/120/101 115/129/109 
f 107/120/101 116/130/110 115/129/109 
f 107/120/101 108/121/102 116/130/110 
f 108/121/102 117/131/42 116/130/110 
f 108/121/102 109/122/103 117/131/42 
f 109/122/103 118/132/111 117/131/42 
f 109/122/103 110/123/104 118/132/111 
f 110/123/104 119/133/112 118/132/111 
f 110/123/104 111/124/105 119/133/112 
f 111/124/105 120/134/113 119/133/112 
f 111/124/105 112/125/106 120/134/113 
f 112/125/106 114/135/108 120/134/113 
f 112/125/106 106/126/100 114/135/108 
f 114/128/108 121/136/114 122/137/53 
f 114/128/108 113/127/107 121/136/114 
f 113/127/107 123/138/115 121/136/114 
f 113/127/107 115/129/109 123/138/115 
f 115/129/109 124/139/116 123/138/115 
f 115/129/109 116/130/110 124/139/116 
f 116/130/110 125/140/117 124/139/116 
f 116/130/110 117/131/42 125/140/117 
f 117/131/42 126/141/118 125/140/117 
f 117/131/42 118/132/111 126/141/118 
f 118/132/111 127/142/119 126/141/118 
f 118/132/111 119/133/112 127/142/119 
f 119/133/112 128/143/120 127/142/119 
f 119/133/112 120/134/113 128/143/120 
f 120/134/113 122/144/53 128/143/120 
f 120/134/113 114/135/108 122/144/53 
f 122/137/53 129/145/121 130/146/122 
f 122/137/53 121/136/114 129/145/121 
f 121/136/114 131/147/123 129/145/121 
f 121/136/114 123/138/115 131/147/123 
f 123/138/115 132/148/124 131/147/123 
f 123/138/115 124/139/116 132/148/124 
f 124/139/116 133/149/125 132/148/124 
f 124/139/116 125/140/117 133/149/125 
f 125/140/117 134/150/126 133/149/125 
f 125/140/117 126/141/118 134/150/126 
f 126/141/118 135/151/127 134/150/126 
f 126/141/118 127/142/119 135/151/127 
f 127/142/119 136/152/128 135/151/127 
f 127/142/119 128/143/120 136/152/128 
f 128/143/120 130/153/122 136/152/128 
f 128/143/120 122/144/53 130/153/122 
f 130/146/122 137/154/129 138/155/130 
f 130/146/122 129/145/121 137/154/129 
f 129/145/121 139/156/131 137/154/129 
f 129/145/121 131/147/123 139/156/131 
f 131/147/123 140/157/132 139/156/131 
f 131/147/123 132/148/124 140/157/132 
f 132/148/124 141/158/133 140/157/132 
f 132/148/124 133/149/125 141/158/133 
f 133/149/125 142/159/134 141/158/133 
f 133/149/125 134/150/126 142/159/134 
f 134/150/126 143/160/135 142/159/134 
f 134/150/126 135/151/127 143/160/135 
f 135/151/127 144/161/136 143/160/135 
f 135/151/127 136/152/128 144/161/136 
f 136/152/128 138/162/130 144/161/136 
f 136/152/128 130/153/122 138/162/130 
f 138/155/130 4/163/4 1/164/1 
f 138/155/130 137/154/129 4/163/4 
f 137/154/129 6/165/6 4/163/4 
f 137/154/129 139/156/131 6/165/6 
f 139/156/131 8/166/8 6/165/6 
f 139/156/131 140/157/132 8/166/8 
f 140/157/132 10/167/10 8/166/8 
f 140/157/132 141/158/133 10/167/10 
f 141/158/133 12/168/12 10/167/10 
f 141/158/133 142/159/134 12/168/12 
f 142/159/134 14/169/14 12/168/12 
f 142/159/134 143/160/135 14/169/14 
f 143/160/135 16/170/16 14/169/14 
f 143/160/135 144/161/136 16/170/16 
f 144/161/136 1/171/1 16/170/16 
f 144/161/136 138/162/130 1/171/1 
# 288 faces

