# This file uses centimeters as units for non-parametric coordinates.

v 0.590599 -1.327459 5.191376
v 0.555377 -1.327459 5.191376
v 0.537767 -1.357962 5.191376
v 0.555377 -1.388465 5.191376
v 0.590599 -1.388465 5.191376
v 0.608210 -1.357962 5.191376
v 0.590599 -1.327459 5.270442
v 0.547488 -1.327459 5.265893
v 0.529877 -1.357962 5.265893
v 0.547488 -1.388465 5.265893
v 0.590599 -1.388465 5.270442
v 0.608210 -1.357962 5.270442
v 0.572988 -1.357962 5.191376
v 0.530778 -1.327459 5.297142
v 0.519140 -1.357962 5.283925
v 0.530778 -1.388465 5.297142
v 0.557636 -1.388465 5.330789
v 0.569275 -1.357962 5.344006
v 0.557636 -1.327459 5.330789
v 0.365523 -1.323591 5.296009
v 0.366050 -1.359466 5.277011
v 0.367435 -1.393837 5.298573
v 0.368292 -1.392333 5.339135
v 0.367765 -1.356459 5.358134
v 0.366380 -1.322088 5.336571
v 0.312550 -1.354139 5.315742
v 0.312813 -1.360670 5.319839
v 0.312650 -1.360955 5.312133
v 0.312913 -1.367486 5.316230
v 0.313076 -1.367200 5.323936
v 0.312976 -1.360384 5.327546
v 0.312713 -1.353854 5.323449
vt 0.578125 0.020934
vt 0.421875 0.020934
vt 0.343750 0.156250
vt 0.421875 0.291566
vt 0.578125 0.291566
vt 0.656250 0.156250
vt 0.375000 0.312500
vt 0.416667 0.312500
vt 0.458333 0.312500
vt 0.500000 0.312500
vt 0.541667 0.312500
vt 0.583333 0.312500
vt 0.625000 0.312500
vt 0.375000 0.688440
vt 0.416667 0.688440
vt 0.458333 0.688440
vt 0.500000 0.688440
vt 0.541667 0.688440
vt 0.583333 0.688440
vt 0.625000 0.688440
vt 0.578125 0.708434
vt 0.421875 0.708434
vt 0.343750 0.843750
vt 0.421875 0.979066
vt 0.578125 0.979066
vt 0.656250 0.843750
vt 0.500000 0.150000
vt 0.500000 0.837500
vt 0.421875 0.979066
vt 0.343750 0.843750
vt 0.421875 0.708434
vt 0.578125 0.708434
vt 0.656250 0.843750
vt 0.578125 0.979066
vt 0.421875 0.979066
vt 0.343750 0.843750
vt 0.421875 0.708434
vt 0.578125 0.708434
vt 0.656250 0.843750
vt 0.578125 0.979066
vt 0.421875 0.979066
vt 0.343750 0.843750
vt 0.421875 0.708434
vt 0.578125 0.708434
vt 0.656250 0.843750
vt 0.578125 0.979066
vn 0.000000 1.000000 -0.000000
vn -0.000000 1.000000 -0.000000
vn -0.000000 1.000000 -0.000000
vn -0.000000 1.000000 -0.000000
vn -0.862409 0.497908 -0.091311
vn -0.862409 0.497908 -0.091311
vn -0.851524 0.491624 -0.182244
vn -0.846162 0.494498 -0.198699
vn -0.862406 -0.497913 -0.091311
vn -0.851521 -0.491628 -0.182243
vn -0.862406 -0.497913 -0.091311
vn -0.846160 -0.494503 -0.198698
vn 0.000000 -1.000000 0.000000
vn 0.000000 -1.000000 0.000000
vn 0.000000 -1.000000 0.000000
vn 0.000000 -1.000000 0.000000
vn 0.866023 -0.500004 0.000000
vn 0.866023 -0.500004 0.000000
vn 0.841459 -0.489722 0.228296
vn 0.849126 -0.490248 0.196575
vn 0.866026 0.499999 -0.000000
vn 0.866026 0.499999 -0.000000
vn 0.849129 0.490243 0.196576
vn 0.841462 0.489717 0.228297
vn 0.000000 -0.000000 -1.000000
vn 0.000000 -0.000000 -1.000000
vn 0.000000 -0.000000 -1.000000
vn 0.000000 -0.000000 -1.000000
vn 0.000000 -0.000000 -1.000000
vn 0.000000 -0.000000 -1.000000
vn 0.000000 -0.000000 -1.000000
vn -0.999407 -0.026395 0.022105
vn -0.999407 -0.026401 0.022105
vn -0.999407 -0.026401 0.022104
vn -0.999407 -0.026407 0.022102
vn -0.999407 -0.026405 0.022101
vn -0.999407 -0.026401 0.022105
vn -0.999407 -0.026397 0.022107
vn -0.778438 0.460273 -0.426830
vn -0.753018 0.481589 -0.448370
vn -0.778435 -0.460278 -0.426829
vn -0.753016 -0.481594 -0.448369
vn 0.000000 -1.000000 0.000000
vn 0.000000 -1.000000 0.000000
vn 0.777219 -0.468817 0.419691
vn 0.771380 -0.476903 0.421351
vn 0.777221 0.468813 0.419693
vn 0.771382 0.476898 0.421352
vn -0.000000 1.000000 -0.000000
vn -0.000000 1.000000 -0.000000
vn 0.015488 0.392536 -0.919607
vn 0.018370 0.403696 -0.914709
vn -0.107574 0.456996 -0.882940
vn -0.103579 0.464297 -0.879602
vn 0.004973 -0.395966 -0.918252
vn -0.091493 -0.519731 -0.849417
vn 0.010656 -0.416288 -0.909170
vn -0.085409 -0.531954 -0.842455
vn 0.019729 -0.999681 -0.015748
vn -0.075198 -0.996602 0.033619
vn 0.021019 -0.999721 -0.010760
vn -0.077848 -0.996219 0.038572
vn 0.060501 -0.416203 0.907257
vn -0.048275 -0.464006 0.884516
vn 0.059068 -0.422354 0.904505
vn -0.047956 -0.468022 0.882415
vn 0.066638 0.417995 0.906002
vn 0.063566 0.432070 0.899597
vn -0.062570 0.520060 0.851835
vn -0.064230 0.528470 0.846519
vn 0.027408 0.999385 -0.021877
vn 0.027049 0.999361 -0.023371
vn -0.101408 0.994288 -0.033283
vn -0.108649 0.993480 -0.034536
vn -0.512264 0.396043 -0.762060
vn -0.512263 0.396046 -0.762060
vn -0.472018 -0.482073 -0.738109
vn -0.472018 -0.482071 -0.738110
vn -0.423569 -0.904867 0.042492
vn -0.423568 -0.904867 0.042489
vn -0.416329 -0.430294 0.800948
vn -0.416330 -0.430291 0.800949
vn -0.457901 0.459126 0.761269
vn -0.457902 0.459123 0.761270
vn -0.505388 0.862629 -0.021301
vn -0.505386 0.862630 -0.021307
f 1/7/1 2/8/2 7/14/3
f 7/14/3 2/8/2 8/15/4
f 2/8/5 3/9/6 8/15/7
f 8/15/7 3/9/6 9/16/8
f 4/10/9 10/17/10 3/9/11
f 3/9/11 10/17/10 9/16/12
f 5/11/13 11/18/14 4/10/15
f 4/10/15 11/18/14 10/17/16
f 5/11/17 6/12/18 11/18/19
f 11/18/19 6/12/18 12/19/20
f 6/12/21 1/13/22 12/19/23
f 12/19/23 1/13/22 7/20/24
f 2/2/25 13/27/26 3/3/27
f 3/3/27 13/27/26 4/4/28
f 4/4/28 13/27/26 5/5/29
f 5/5/29 13/27/26 6/6/30
f 6/6/30 13/27/26 1/1/31
f 1/1/31 13/27/26 2/2/25
f 26/41/32 28/42/33 27/28/34
f 27/28/34 28/42/33 29/43/35
f 29/43/35 30/44/36 27/28/34
f 27/28/34 30/44/36 31/45/37
f 31/45/37 32/46/38 27/28/34
f 27/28/34 32/46/38 26/41/32
f 8/24/7 9/23/8 14/29/39
f 14/29/39 9/23/8 15/30/40
f 10/22/10 16/31/41 9/23/12
f 9/23/12 16/31/41 15/30/42
f 11/21/14 17/32/43 10/22/16
f 10/22/16 17/32/43 16/31/44
f 12/26/20 18/33/45 11/21/19
f 11/21/19 18/33/45 17/32/46
f 12/26/23 7/25/24 18/33/47
f 18/33/47 7/25/24 19/34/48
f 7/25/3 8/24/4 19/34/49
f 19/34/49 8/24/4 14/29/50
f 14/29/51 15/30/52 20/35/53
f 20/35/53 15/30/52 21/36/54
f 16/31/55 22/37/56 15/30/57
f 15/30/57 22/37/56 21/36/58
f 17/32/59 23/38/60 16/31/61
f 16/31/61 23/38/60 22/37/62
f 18/33/63 24/39/64 17/32/65
f 17/32/65 24/39/64 23/38/66
f 18/33/67 19/34/68 24/39/69
f 24/39/69 19/34/68 25/40/70
f 19/34/71 14/29/72 25/40/73
f 25/40/73 14/29/72 20/35/74
f 20/35/53 21/36/54 26/41/75
f 26/41/75 21/36/54 28/42/76
f 22/37/56 29/43/77 21/36/58
f 21/36/58 29/43/77 28/42/78
f 22/37/62 23/38/60 29/43/79
f 29/43/79 23/38/60 30/44/80
f 23/38/66 24/39/64 30/44/81
f 30/44/81 24/39/64 31/45/82
f 25/40/70 32/46/83 24/39/69
f 24/39/69 32/46/83 31/45/84
f 20/35/74 26/41/85 25/40/73
f 25/40/73 26/41/85 32/46/86
