# This file uses centimeters as units for non-parametric coordinates.

v -5.000000 -3.065091 5.000000
v 5.000000 -3.065091 5.000000
v -5.000000 -3.065091 -5.000000
v 5.000000 -3.065091 -5.000000
v -5.000000 -3.065091 0.000000
v 5.000000 -3.065091 0.000000
v -5.000000 2.184909 5.000000
v -5.000000 5.934909 0.000000
v 5.000000 2.184909 5.000000
v 5.000000 5.934909 0.000000
v -5.000000 2.184909 -5.000000
v 5.000000 2.184909 -5.000000
vt 0.976339 0.076452
vt 0.277791 0.535222
vt 0.275139 0.962261
vt 0.039000 0.782855
vt 0.515035 0.536695
vt 0.513488 0.785801
vt 0.264606 0.072033
vt 0.261955 0.499072
vt 0.025815 0.319666
vt 0.027362 0.070559
vt 0.501850 0.073506
vt 0.500303 0.322612
vt 0.798281 0.407035
vt 0.798281 0.371721
vt 0.868910 0.371721
vt 0.868910 0.407035
vt 0.798281 0.442350
vt 0.868910 0.442350
vt 0.794020 0.368536
vt 0.767534 0.368536
vt 0.767534 0.439165
vt 0.989523 0.539641
vt 0.987976 0.788747
vt 0.867916 0.446297
vt 0.867916 0.516926
vt 0.794020 0.439165
vt 0.841430 0.446297
vt 0.841430 0.516926
vt 0.040547 0.533748
vt 0.974792 0.325558
vn 0.000000 0.000000 -1.000000
vn 0.000000 0.000000 -1.000000
vn 0.000000 0.000000 -1.000000
vn 0.000000 0.000000 -1.000000
vn 0.000000 -1.000000 0.000000
vn 0.000000 -1.000000 0.000000
vn 0.000000 -1.000000 0.000000
vn 0.000000 -1.000000 0.000000
vn 0.000000 -1.000000 0.000000
vn 0.000000 -1.000000 0.000000
vn -1.000000 0.000000 0.000000
vn -1.000000 0.000000 0.000000
vn -1.000000 0.000000 0.000000
vn -1.000000 0.000000 0.000000
vn -1.000000 0.000000 0.000000
vn -1.000000 0.000000 0.000000
vn 0.000000 0.000000 1.000000
vn 0.000000 0.000000 1.000000
vn 0.000000 0.000000 1.000000
vn 0.000000 0.000000 1.000000
vn 1.000000 0.000000 0.000000
vn 1.000000 0.000000 0.000000
vn 1.000000 0.000000 0.000000
vn 1.000000 0.000000 0.000000
vn 1.000000 0.000000 0.000000
vn 1.000000 0.000000 0.000000
vn 0.000000 0.800000 -0.600000
vn 0.000000 0.800000 -0.600000
vn 0.000000 0.800000 -0.600000
vn 0.000000 0.800000 -0.600000
vn 0.000000 0.800000 0.600000
vn 0.000000 0.800000 0.600000
vn 0.000000 0.800000 0.600000
vn 0.000000 0.800000 0.600000
f 12/12/1 4/11/2 11/30/3
f 11/30/3 4/11/2 3/1/4
f 5/13/5 3/14/6 6/16/7
f 6/16/7 3/14/6 4/15/8
f 1/17/9 5/13/5 2/18/10
f 2/18/10 5/13/5 6/16/7
f 3/29/11 5/2/12 11/4/13
f 11/4/13 5/2/12 8/3/14
f 1/5/15 7/6/16 5/2/12
f 5/2/12 7/6/16 8/3/14
f 7/6/17 1/5/18 9/23/19
f 9/23/19 1/5/18 2/22/20
f 10/8/21 9/9/22 6/7/23
f 6/7/23 9/9/22 2/10/24
f 4/11/25 12/12/26 6/7/23
f 6/7/23 12/12/26 10/8/21
f 10/20/27 12/19/28 8/21/29
f 8/21/29 12/19/28 11/26/30
f 10/24/31 8/25/32 9/27/33
f 9/27/33 8/25/32 7/28/34
