# This file uses centimeters as units for non-parametric coordinates.

v -5.128441 -2.044011 -2.995551
v -5.128441 -2.044011 -2.840738
v -5.128441 -2.044011 -1.159261
v -5.128441 -2.044011 -1.004448
v -5.128441 -1.952664 -2.995551
v -5.128441 -1.952664 -2.840738
v -5.128441 -1.952664 -1.159261
v -5.128441 -1.952664 -1.004448
v -5.128441 0.037654 -2.995551
v -5.128441 0.037654 -2.840738
v -5.128441 0.037654 -1.159261
v -5.128441 0.037654 -1.004448
v -5.128441 0.129001 -2.995551
v -5.128441 0.129001 -2.840738
v -5.128441 0.129001 -1.159261
v -5.128441 0.129001 -1.004448
v -4.630666 0.129001 -2.995551
v -4.630666 0.129001 -2.840738
v -4.630666 0.129001 -1.159261
v -4.630666 0.129001 -1.004448
v -4.630666 0.037655 -2.995551
v -4.690550 0.037655 -2.840738
v -4.690550 0.037655 -1.159261
v -4.630666 0.037655 -1.004448
v -4.630666 -1.952663 -2.995551
v -4.690550 -1.952663 -2.840738
v -4.690550 -1.952663 -1.159261
v -4.630666 -1.952663 -1.004448
v -4.630666 -2.044011 -2.995551
v -4.630666 -2.044011 -2.840738
v -4.630666 -2.044011 -1.159261
v -4.630666 -2.044011 -1.004448
v -5.128441 0.037654 -2.073965
v -5.128441 0.129001 -2.073965
v -4.630666 0.129001 -2.073965
v -4.690550 0.037655 -2.073965
v -4.690550 -1.952663 -2.073965
v -4.630666 -2.044011 -2.073965
v -5.128441 -2.044011 -2.073965
v -5.128441 -1.952664 -2.073965
v -5.128441 0.037654 -1.971228
v -5.128441 0.129001 -1.971228
v -4.630666 0.129001 -1.971228
v -4.690550 0.037655 -1.971228
v -4.690550 -1.952663 -1.971228
v -4.630666 -2.044011 -1.971228
v -5.128441 -2.044011 -1.971228
v -5.128441 -1.952664 -1.971228
v -4.690550 -0.868500 -1.971228
v -4.690550 -0.868500 -2.073965
v -4.690550 -0.868500 -2.840738
v -4.630666 -0.868500 -2.995551
v -5.128441 -0.868501 -2.995551
v -5.128441 -0.868501 -2.840738
v -5.128441 -0.868501 -2.073965
v -5.128441 -0.868501 -1.971228
v -5.128441 -0.868501 -1.159261
v -5.128441 -0.868501 -1.004448
v -4.630666 -0.868500 -1.004448
v -4.690550 -0.868500 -1.159261
v -4.690550 -1.004736 -1.971228
v -4.690550 -1.004736 -2.073965
v -4.690550 -1.004736 -2.840738
v -4.630666 -1.004736 -2.995551
v -5.128441 -1.004736 -2.995551
v -5.128441 -1.004736 -2.840738
v -5.128441 -1.004736 -2.073965
v -5.128441 -1.004736 -1.971228
v -5.128441 -1.004736 -1.159261
v -5.128441 -1.004736 -1.004448
v -4.630666 -1.004736 -1.004448
v -4.690550 -1.004736 -1.159261
v -5.036431 -0.868501 -2.073965
v -5.036431 0.037654 -2.073965
v -5.036431 0.037654 -2.840738
v -5.036431 -0.868501 -2.840738
v -5.036431 -0.868501 -1.159261
v -5.036431 0.037654 -1.159261
v -5.036431 0.037654 -1.971228
v -5.036431 -0.868501 -1.971228
v -5.036431 -1.952664 -2.073965
v -5.036431 -1.004736 -2.073965
v -5.036431 -1.004736 -2.840738
v -5.036431 -1.952664 -2.840738
v -5.036431 -1.952664 -1.159261
v -5.036431 -1.004736 -1.159261
v -5.036431 -1.004736 -1.971228
v -5.036431 -1.952664 -1.971228
vt 0.698615 0.001992
vt 0.784195 0.001992
vt 0.698615 0.027175
vt 0.784195 0.027175
vt 0.698615 0.288501
vt 0.784195 0.288501
vt 0.698615 0.326059
vt 0.784195 0.326059
vt 0.698615 0.575870
vt 0.784195 0.575870
vt 0.698615 0.601052
vt 0.784195 0.601052
vt 0.790751 0.001992
vt 0.876331 0.001992
vt 0.790751 0.027175
vt 0.876331 0.027175
vt 0.790751 0.288501
vt 0.876331 0.288501
vt 0.790751 0.326059
vt 0.876331 0.326059
vt 0.790751 0.575870
vt 0.876331 0.575870
vt 0.790751 0.601052
vt 0.876331 0.601052
vt 0.108314 0.604826
vt 0.108314 0.854637
vt 0.092495 0.604826
vt 0.092495 0.854637
vt 0.070876 0.854637
vt 0.070876 0.604826
vt 0.086695 0.854637
vt 0.086695 0.604826
vt 0.065075 0.604826
vt 0.065075 0.854637
vt 0.049256 0.604826
vt 0.049256 0.854637
vt 0.027636 0.854637
vt 0.027636 0.604826
vt 0.043455 0.854637
vt 0.043455 0.604826
vt 0.477820 0.604826
vt 0.477820 0.866153
vt 0.462001 0.604826
vt 0.462001 0.866153
vt 0.440381 0.866153
vt 0.440381 0.604826
vt 0.456200 0.866153
vt 0.456200 0.604826
vt 0.434580 0.604826
vt 0.434580 0.866153
vt 0.418762 0.604826
vt 0.418762 0.866153
vt 0.397142 0.866153
vt 0.397142 0.604826
vt 0.412961 0.866153
vt 0.412961 0.604826
vt 0.858028 0.947146
vt 0.858028 0.920530
vt 0.943608 0.947146
vt 0.943608 0.920530
vt 0.858028 0.788703
vt 0.943608 0.788703
vt 0.943608 0.771040
vt 0.858028 0.771040
vt 0.943608 0.631442
vt 0.858028 0.631442
vt 0.858028 0.604826
vt 0.943608 0.604826
vt 0.766647 0.947146
vt 0.766647 0.920530
vt 0.852227 0.947146
vt 0.852227 0.920530
vt 0.766647 0.788703
vt 0.852227 0.788703
vt 0.852227 0.771040
vt 0.766647 0.771040
vt 0.852227 0.631442
vt 0.766647 0.631442
vt 0.766647 0.604826
vt 0.852227 0.604826
vt 0.084224 0.858411
vt 0.084224 0.990238
vt 0.068406 0.858411
vt 0.068406 0.990238
vt 0.090518 0.990238
vt 0.090518 0.858411
vt 0.106337 0.990238
vt 0.106337 0.858411
vt 0.021835 0.604826
vt 0.021835 0.744424
vt 0.006016 0.604826
vt 0.006016 0.744424
vt 0.001883 0.887795
vt 0.001883 0.748197
vt 0.017702 0.887795
vt 0.017702 0.748197
vt 0.128450 0.858411
vt 0.128450 0.990238
vt 0.112631 0.858411
vt 0.112631 0.990238
vt 0.134743 0.990238
vt 0.134743 0.858411
vt 0.150562 0.990238
vt 0.150562 0.858411
vt 0.039999 0.858411
vt 0.039999 0.998008
vt 0.024180 0.858411
vt 0.024180 0.998008
vt 0.046293 0.998008
vt 0.046293 0.858411
vt 0.062112 0.998008
vt 0.062112 0.858411
vt 0.001883 0.001992
vt 0.028500 0.001992
vt 0.001883 0.027175
vt 0.028500 0.027175
vt 0.160327 0.001992
vt 0.001883 0.288501
vt 0.160327 0.027175
vt 0.028500 0.288501
vt 0.177990 0.027175
vt 0.001883 0.326059
vt 0.177990 0.001992
vt 0.177990 0.288501
vt 0.028500 0.326059
vt 0.317587 0.027175
vt 0.160327 0.288501
vt 0.160327 0.326059
vt 0.001883 0.575870
vt 0.317587 0.001992
vt 0.177990 0.326059
vt 0.028500 0.575870
vt 0.344204 0.001992
vt 0.317587 0.326059
vt 0.001883 0.601052
vt 0.344204 0.027175
vt 0.317587 0.288501
vt 0.177990 0.575870
vt 0.028500 0.601052
vt 0.344204 0.288501
vt 0.160327 0.575870
vt 0.344204 0.326059
vt 0.160327 0.601052
vt 0.317587 0.575870
vt 0.177990 0.601052
vt 0.344204 0.575870
vt 0.317587 0.601052
vt 0.344204 0.601052
vt 0.350341 0.001992
vt 0.376958 0.001992
vt 0.350341 0.027175
vt 0.376958 0.027175
vt 0.508785 0.001992
vt 0.350341 0.276985
vt 0.508785 0.027175
vt 0.376958 0.276985
vt 0.526448 0.027175
vt 0.350341 0.314543
vt 0.526448 0.001992
vt 0.526448 0.276985
vt 0.508785 0.276985
vt 0.376958 0.314543
vt 0.666045 0.027175
vt 0.350341 0.575869
vt 0.666045 0.001992
vt 0.526448 0.314543
vt 0.666045 0.276985
vt 0.508785 0.314543
vt 0.376958 0.575869
vt 0.692661 0.027175
vt 0.376958 0.601052
vt 0.692661 0.001992
vt 0.526448 0.575869
vt 0.666045 0.314543
vt 0.692661 0.276985
vt 0.508785 0.575869
vt 0.350341 0.601052
vt 0.666045 0.575869
vt 0.508785 0.601052
vt 0.526448 0.601052
vt 0.666045 0.601052
vt 0.692661 0.314543
vt 0.692661 0.575869
vt 0.692661 0.601052
vt 0.391341 0.604826
vt 0.391341 0.854637
vt 0.259514 0.604826
vt 0.259514 0.854637
vt 0.253713 0.604826
vt 0.253713 0.854637
vt 0.114115 0.604826
vt 0.114115 0.854637
vt 0.760846 0.604826
vt 0.760846 0.866153
vt 0.629019 0.604826
vt 0.629019 0.866153
vt 0.623218 0.604826
vt 0.623218 0.866153
vt 0.483621 0.604826
vt 0.483621 0.866153
vn -1.000000 0.000000 0.000000
vn -1.000000 0.000000 0.000000
vn -1.000000 0.000000 0.000000
vn -1.000000 0.000000 0.000000
vn -1.000000 0.000000 0.000000
vn -1.000000 0.000000 0.000000
vn -1.000000 0.000000 0.000000
vn -1.000000 0.000000 0.000000
vn -1.000000 0.000000 0.000000
vn -1.000000 0.000000 0.000000
vn -1.000000 0.000000 0.000000
vn -1.000000 0.000000 0.000000
vn -1.000000 0.000000 0.000000
vn -1.000000 0.000000 0.000000
vn -1.000000 0.000000 0.000000
vn -1.000000 0.000000 0.000000
vn -1.000000 0.000000 0.000000
vn -1.000000 0.000000 0.000000
vn -1.000000 0.000000 0.000000
vn -1.000000 0.000000 0.000000
vn -1.000000 0.000000 0.000000
vn -1.000000 0.000000 0.000000
vn -1.000000 0.000000 0.000000
vn -1.000000 0.000000 0.000000
vn 0.000000 1.000000 0.000000
vn 0.000000 1.000000 0.000000
vn 0.000000 1.000000 0.000000
vn 0.000000 1.000000 0.000000
vn 0.000000 1.000000 0.000000
vn 0.000000 1.000000 0.000000
vn 0.000000 1.000000 0.000000
vn 0.000000 1.000000 0.000000
vn 0.000000 1.000000 0.000000
vn 0.000000 1.000000 0.000000
vn 1.000000 0.000000 -0.000000
vn 0.856013 -0.516026 0.030981
vn 0.937895 -0.029506 0.345661
vn 0.996185 -0.059008 0.064300
vn 0.836311 -0.548256 -0.000000
vn 0.998203 -0.059926 -0.000000
vn 1.000000 0.000000 -0.000000
vn 0.937895 -0.029506 -0.345661
vn 0.855123 -0.517584 -0.029512
vn 0.996371 -0.059056 -0.061302
vn 0.932657 0.000000 0.360763
vn 0.997895 0.000000 0.064842
vn 1.000000 0.000000 -0.000000
vn 0.998087 0.000000 -0.061823
vn 0.932657 0.000000 -0.360763
vn 0.996320 0.056641 0.064326
vn 0.856015 0.516022 0.030981
vn 0.937705 0.028319 0.346277
vn 1.000000 0.000000 -0.000000
vn 0.998344 0.057525 -0.000000
vn 0.836313 0.548252 -0.000000
vn 0.996507 0.056687 -0.061327
vn 0.937705 0.028319 -0.346277
vn 0.855126 0.517580 -0.029512
vn 1.000000 0.000000 -0.000000
vn 0.000000 -1.000000 0.000000
vn 0.000000 -1.000000 0.000000
vn 0.000000 -1.000000 0.000000
vn 0.000000 -1.000000 0.000000
vn 0.000000 -1.000000 0.000000
vn 0.000000 -1.000000 0.000000
vn 0.000000 -1.000000 0.000000
vn 0.000000 -1.000000 0.000000
vn 0.000000 -1.000000 0.000000
vn 0.000000 -1.000000 0.000000
vn 0.000000 0.000000 1.000000
vn 0.000000 0.000000 1.000000
vn 0.000000 0.000000 1.000000
vn 0.000000 0.000000 1.000000
vn 0.000000 0.000000 1.000000
vn 0.000000 0.000000 1.000000
vn 0.000000 0.000000 1.000000
vn 0.000000 0.000000 1.000000
vn 0.000000 0.000000 1.000000
vn 0.000000 0.000000 1.000000
vn -0.000000 0.000000 -1.000000
vn -0.000000 0.000000 -1.000000
vn -0.000000 0.000000 -1.000000
vn -0.000000 0.000000 -1.000000
vn -0.000000 0.000000 -1.000000
vn -0.000000 0.000000 -1.000000
vn -0.000000 0.000000 -1.000000
vn -0.000000 0.000000 -1.000000
vn -0.000000 0.000000 -1.000000
vn -0.000000 0.000000 -1.000000
vn -1.000000 0.000000 0.000000
vn -1.000000 0.000000 0.000000
vn -1.000000 0.000000 0.000000
vn -1.000000 0.000000 0.000000
vn -1.000000 0.000000 0.000000
vn -1.000000 0.000000 0.000000
vn 0.000000 1.000000 0.000000
vn 0.000000 1.000000 0.000000
vn 0.998203 -0.059926 -0.000000
vn 0.836311 -0.548255 -0.000000
vn 1.000000 0.000000 -0.000000
vn 0.836314 0.548251 -0.000000
vn 0.998344 0.057525 -0.000000
vn 0.000000 -1.000000 0.000000
vn 0.000000 -1.000000 0.000000
vn -1.000000 0.000000 0.000000
vn -1.000000 0.000000 0.000000
vn -1.000000 0.000000 0.000000
vn -1.000000 0.000000 0.000000
vn -1.000000 0.000000 0.000000
vn -1.000000 0.000000 0.000000
vn -1.000000 0.000000 0.000000
vn -1.000000 0.000000 0.000000
vn -1.000000 0.000000 0.000000
vn -1.000000 0.000000 0.000000
vn 1.000000 0.000000 -0.000000
vn 1.000000 0.000000 -0.000000
vn 0.997895 0.000000 0.064842
vn 0.932657 0.000000 0.360763
vn -0.000000 0.000000 -1.000000
vn -0.000000 0.000000 -1.000000
vn -1.000000 0.000000 0.000000
vn -1.000000 0.000000 0.000000
vn -1.000000 0.000000 0.000000
vn -1.000000 0.000000 0.000000
vn -1.000000 0.000000 0.000000
vn -1.000000 0.000000 0.000000
vn -1.000000 0.000000 0.000000
vn -1.000000 0.000000 0.000000
vn -1.000000 0.000000 0.000000
vn -1.000000 0.000000 0.000000
vn 0.000000 0.000000 1.000000
vn 0.000000 0.000000 1.000000
vn 0.998087 0.000000 -0.061823
vn 0.932657 0.000000 -0.360763
vn -1.000000 0.000000 0.000000
vn -1.000000 0.000000 0.000000
vn -1.000000 0.000000 0.000000
vn -1.000000 0.000000 0.000000
vn -1.000000 0.000000 0.000000
vn -1.000000 0.000000 0.000000
vn -1.000000 0.000000 0.000000
vn -1.000000 0.000000 0.000000
vn -1.000000 0.000000 0.000000
vn -1.000000 0.000000 0.000000
vn -0.000000 0.000000 -1.000000
vn -0.000000 0.000000 -1.000000
vn -0.000000 0.000000 -1.000000
vn -0.000000 0.000000 -1.000000
vn 0.000000 -1.000000 0.000000
vn 0.000000 -1.000000 0.000000
vn 0.000000 -1.000000 0.000000
vn 0.000000 -1.000000 0.000000
vn 0.000000 0.000000 1.000000
vn 0.000000 0.000000 1.000000
vn 0.000000 0.000000 1.000000
vn 0.000000 0.000000 1.000000
vn 0.000000 1.000000 0.000000
vn 0.000000 1.000000 0.000000
vn 0.000000 1.000000 0.000000
vn 0.000000 1.000000 0.000000
vn -0.000000 0.000000 -1.000000
vn -0.000000 0.000000 -1.000000
vn -0.000000 0.000000 -1.000000
vn -0.000000 0.000000 -1.000000
vn 0.000000 -1.000000 0.000000
vn 0.000000 -1.000000 0.000000
vn 0.000000 -1.000000 0.000000
vn 0.000000 -1.000000 0.000000
vn 0.000000 0.000000 1.000000
vn 0.000000 0.000000 1.000000
vn 0.000000 0.000000 1.000000
vn 0.000000 0.000000 1.000000
vn 0.000000 1.000000 0.000000
vn 0.000000 1.000000 0.000000
vn 0.000000 1.000000 0.000000
vn 0.000000 1.000000 0.000000
vn -0.000000 0.000000 -1.000000
vn -0.000000 0.000000 -1.000000
vn -0.000000 0.000000 -1.000000
vn -0.000000 0.000000 -1.000000
vn 0.000000 -1.000000 0.000000
vn 0.000000 -1.000000 0.000000
vn 0.000000 -1.000000 0.000000
vn 0.000000 -1.000000 0.000000
vn 0.000000 0.000000 1.000000
vn 0.000000 0.000000 1.000000
vn 0.000000 0.000000 1.000000
vn 0.000000 0.000000 1.000000
vn 0.000000 1.000000 0.000000
vn 0.000000 1.000000 0.000000
vn 0.000000 1.000000 0.000000
vn 0.000000 1.000000 0.000000
vn -0.000000 0.000000 -1.000000
vn -0.000000 0.000000 -1.000000
vn -0.000000 0.000000 -1.000000
vn -0.000000 0.000000 -1.000000
vn 0.000000 -1.000000 0.000000
vn 0.000000 -1.000000 0.000000
vn 0.000000 -1.000000 0.000000
vn 0.000000 -1.000000 0.000000
vn 0.000000 0.000000 1.000000
vn 0.000000 0.000000 1.000000
vn 0.000000 0.000000 1.000000
vn 0.000000 0.000000 1.000000
vn 0.000000 1.000000 0.000000
vn 0.000000 1.000000 0.000000
vn 0.000000 1.000000 0.000000
vn 0.000000 1.000000 0.000000
f 1/113/1 2/114/2 5/115/3
f 5/115/3 2/114/2 6/116/4
f 2/114/2 39/117/5 6/116/4
f 6/116/4 39/117/5 40/119/6
f 3/130/7 4/133/8 7/126/9
f 7/126/9 4/133/8 8/136/10
f 53/122/11 54/125/12 9/129/13
f 9/129/13 54/125/12 10/132/14
f 57/134/15 58/142/16 11/144/17
f 11/144/17 58/142/16 12/146/18
f 9/129/13 10/132/14 13/135/19
f 13/135/19 10/132/14 14/139/20
f 10/132/14 33/141/21 14/139/20
f 14/139/20 33/141/21 34/143/22
f 11/144/17 12/146/18 15/147/23
f 15/147/23 12/146/18 16/148/24
f 13/57/25 14/58/26 17/59/27
f 17/59/27 14/58/26 18/60/28
f 14/58/26 34/61/29 18/60/28
f 18/60/28 34/61/29 35/62/30
f 15/66/31 16/67/32 19/65/33
f 19/65/33 16/67/32 20/68/34
f 17/149/35 18/150/36 21/151/37
f 21/151/37 18/150/36 22/152/38
f 18/150/36 35/153/39 22/152/38
f 22/152/38 35/153/39 36/155/40
f 20/172/41 24/170/42 19/165/43
f 19/165/43 24/170/42 23/163/44
f 21/151/37 22/152/38 52/154/45
f 52/154/45 22/152/38 51/156/46
f 22/152/38 36/155/40 51/156/46
f 51/156/46 36/155/40 50/161/47
f 23/163/44 24/170/42 60/167/48
f 60/167/48 24/170/42 59/175/49
f 26/169/50 30/171/51 25/164/52
f 25/164/52 30/171/51 29/177/53
f 26/169/50 37/176/54 30/171/51
f 30/171/51 37/176/54 38/179/55
f 27/178/56 28/183/57 31/181/58
f 31/181/58 28/183/57 32/184/59
f 29/69/60 30/70/61 1/71/62
f 1/71/62 30/70/61 2/72/63
f 30/70/61 38/73/64 2/72/63
f 2/72/63 38/73/64 39/74/65
f 31/78/66 32/79/67 3/77/68
f 3/77/68 32/79/67 4/80/69
f 4/1/70 32/2/71 8/3/72
f 8/3/72 32/2/71 28/4/73
f 58/7/74 59/8/75 12/9/76
f 12/9/76 59/8/75 24/10/77
f 12/9/76 24/10/77 16/11/78
f 16/11/78 24/10/77 20/12/79
f 29/13/80 1/14/81 25/15/82
f 25/15/82 1/14/81 5/16/83
f 52/19/84 53/20/85 21/21/86
f 21/21/86 53/20/85 9/22/87
f 21/21/86 9/22/87 17/23/88
f 17/23/88 9/22/87 13/24/89
f 73/185/90 74/186/91 76/187/92
f 76/187/92 74/186/91 75/188/93
f 33/141/21 41/138/94 34/143/22
f 34/143/22 41/138/94 42/145/95
f 35/62/30 34/61/29 43/63/96
f 43/63/96 34/61/29 42/64/97
f 36/155/40 35/153/39 44/157/98
f 44/157/98 35/153/39 43/159/99
f 50/161/47 36/155/40 49/160/100
f 49/160/100 36/155/40 44/157/98
f 38/179/55 37/176/54 46/180/101
f 46/180/101 37/176/54 45/173/102
f 39/74/65 38/73/64 47/75/103
f 47/75/103 38/73/64 46/76/104
f 40/119/6 39/117/5 48/121/105
f 48/121/105 39/117/5 47/123/106
f 56/131/107 41/138/108 55/128/109
f 55/128/109 41/138/108 33/141/110
f 41/138/94 11/144/17 42/145/95
f 42/145/95 11/144/17 15/147/23
f 43/63/96 42/64/97 19/65/33
f 19/65/33 42/64/97 15/66/31
f 44/157/98 43/159/99 23/163/44
f 23/163/44 43/159/99 19/165/43
f 60/167/48 49/160/100 23/163/44
f 23/163/44 49/160/100 44/157/98
f 46/180/101 45/173/102 31/181/58
f 31/181/58 45/173/102 27/178/56
f 47/75/103 46/76/104 3/77/68
f 3/77/68 46/76/104 31/78/66
f 48/121/105 47/123/106 7/126/9
f 7/126/9 47/123/106 3/130/7
f 77/189/111 78/190/112 80/191/113
f 80/191/113 78/190/112 79/192/114
f 62/168/115 50/161/47 61/166/116
f 61/166/116 50/161/47 49/160/100
f 51/156/46 50/161/47 63/162/117
f 63/162/117 50/161/47 62/168/115
f 52/154/45 51/156/46 64/158/118
f 64/158/118 51/156/46 63/162/117
f 64/17/119 65/18/120 52/19/84
f 52/19/84 65/18/120 53/20/85
f 65/118/121 66/120/122 53/122/11
f 53/122/11 66/120/122 54/125/12
f 67/127/123 55/128/109 66/120/124
f 66/120/124 55/128/109 54/125/125
f 68/124/126 56/131/107 67/127/123
f 67/127/123 56/131/107 55/128/109
f 69/137/127 57/134/128 68/124/126
f 68/124/126 57/134/128 56/131/107
f 69/137/129 70/140/130 57/134/15
f 57/134/15 70/140/130 58/142/16
f 70/5/131 71/6/132 58/7/74
f 58/7/74 71/6/132 59/8/75
f 60/167/48 59/175/49 72/174/133
f 72/174/133 59/175/49 71/182/134
f 72/174/133 61/166/116 60/167/48
f 60/167/48 61/166/116 49/160/100
f 37/176/54 62/168/115 45/173/102
f 45/173/102 62/168/115 61/166/116
f 63/162/117 62/168/115 26/169/50
f 26/169/50 62/168/115 37/176/54
f 64/158/118 63/162/117 25/164/52
f 25/164/52 63/162/117 26/169/50
f 25/15/82 5/16/83 64/17/119
f 64/17/119 5/16/83 65/18/120
f 5/115/3 6/116/4 65/118/121
f 65/118/121 6/116/4 66/120/122
f 81/193/135 82/194/136 84/195/137
f 84/195/137 82/194/136 83/196/138
f 48/121/139 68/124/126 40/119/140
f 40/119/140 68/124/126 67/127/123
f 85/197/141 86/198/142 88/199/143
f 88/199/143 86/198/142 87/200/144
f 7/126/9 8/136/10 69/137/129
f 69/137/129 8/136/10 70/140/130
f 8/3/72 28/4/73 70/5/131
f 70/5/131 28/4/73 71/6/132
f 72/174/133 71/182/134 27/178/56
f 27/178/56 71/182/134 28/183/57
f 45/173/102 61/166/116 27/178/56
f 27/178/56 61/166/116 72/174/133
f 55/25/145 33/26/146 73/27/147
f 73/27/147 33/26/146 74/28/148
f 33/81/149 10/82/150 74/83/151
f 74/83/151 10/82/150 75/84/152
f 10/29/153 54/30/154 75/31/155
f 75/31/155 54/30/154 76/32/156
f 54/85/157 55/86/158 76/87/159
f 76/87/159 55/86/158 73/88/160
f 57/33/161 11/34/162 77/35/163
f 77/35/163 11/34/162 78/36/164
f 11/89/165 41/90/166 78/91/167
f 78/91/167 41/90/166 79/92/168
f 41/37/169 56/38/170 79/39/171
f 79/39/171 56/38/170 80/40/172
f 56/93/173 57/94/174 80/95/175
f 80/95/175 57/94/174 77/96/176
f 40/41/177 67/42/178 81/43/179
f 81/43/179 67/42/178 82/44/180
f 67/97/181 66/98/182 82/99/183
f 82/99/183 66/98/182 83/100/184
f 66/45/185 6/46/186 83/47/187
f 83/47/187 6/46/186 84/48/188
f 6/101/189 40/102/190 84/103/191
f 84/103/191 40/102/190 81/104/192
f 7/49/193 69/50/194 85/51/195
f 85/51/195 69/50/194 86/52/196
f 69/105/197 68/106/198 86/107/199
f 86/107/199 68/106/198 87/108/200
f 68/53/201 48/54/202 87/55/203
f 87/55/203 48/54/202 88/56/204
f 48/109/205 7/110/206 88/111/207
f 88/111/207 7/110/206 85/112/208
