# 3ds Max Wavefront OBJ Exporter v0.97b - (c)2007 guruware
# File Created: 18.03.2018 17:22:31

#
# object Plane003
#

v  0.0000 -0.0089 -2.9088
v  0.0000 -0.0089 -1.9088
v  600.0000 -0.0089 -2.9088
v  600.0000 -0.0089 -1.9088
v  0.0000 -0.0089 1.9476
v  0.0000 -0.0089 2.9476
v  600.0000 -0.0089 1.9476
v  600.0000 -0.0089 2.9476
# 8 vertices

vn 0.0000 1.0000 -0.0000
# 1 vertex normals

vt -299.5000 1.0000 0.5000
vt -299.5000 0.0001 0.5000
vt 300.5000 0.9999 0.5000
vt 300.5000 0.0000 0.5000
# 4 texture coords

o Plane003
g Plane003
f 1/1/1 2/2/1 3/3/1 
f 4/4/1 3/3/1 2/2/1 
f 5/1/1 6/2/1 7/3/1 
f 8/4/1 7/3/1 6/2/1 
# 4 faces

